<svg xmlns="http://www.w3.org/2000/svg" viewBox="0 0 581.99 110.15"><defs><style>.cls-1,.cls-2{fill:#1d1d1b;}.cls-1{stroke:#1d1d1b;stroke-miterlimit:10;}</style></defs><g id="Layer_2" data-name="Layer 2"><g id="Layer_4" data-name="Layer 4"><path class="cls-1" d="M372.8,109.18c-33.13,0-48-27.29-48-54.34S339.67.5,372.8.5s48,27.29,48,54.34S405.93,109.18,372.8,109.18Zm0-106c-31.32,0-45.33,26-45.33,51.71s14,51.71,45.33,51.71,45.33-26,45.33-51.71S404.11,3.13,372.8,3.13Z"/><path class="cls-1" d="M580.17,2.91H500.4a1.32,1.32,0,0,0-1.31,1.32V67.74c0,25.39-12.2,38.81-35.28,38.81s-35.28-13.42-35.28-38.81V3.32a1.32,1.32,0,0,0-2.63,0V67.74c0,27.11,13.1,41.44,37.91,41.44s37.91-14.33,37.91-41.44V5.54H539.3v99.92a1.32,1.32,0,0,0,2.63,0V5.54h38.24a1.32,1.32,0,1,0,0-2.63Z"/><path class="cls-2" d="M31.75,110.15C8.31,110.15,0,93.82,0,79.83V74.07a1.69,1.69,0,0,1,3.38,0v5.76c0,13,7.45,27,28.37,27,22,0,29.75-14.52,29.75-26.95v-.72c0-13.73-15-18.25-27-21.89l-1.74-.52c-14.76-4.49-30-9.14-30-28.81C2.76,18.45,9,.59,32.67.59,54.94.59,62.88,14.76,62.88,28v2.16a1.69,1.69,0,0,1-3.38,0V28C59.5,16.39,52.45,4,32.67,4,11.68,4,6.13,19.61,6.13,27.89c0,16,10.45,20.35,27.64,25.58L35.5,54c12.4,3.75,29.37,8.89,29.37,25.12v.72C64.87,94.92,54.63,110.15,31.75,110.15Z"/><path class="cls-2" d="M73.88,108.42a1.69,1.69,0,0,1-1.69-1.68V4a1.69,1.69,0,0,1,1.69-1.69h30.06c16.69,0,27.91,11.67,27.91,29,0,22.06-17,29.89-31.59,29.89H75.57v45.51A1.69,1.69,0,0,1,73.88,108.42Zm1.69-50.57h24.69c13.64,0,28.22-7,28.22-26.51,0-15.58-9.64-25.65-24.54-25.65H75.57Z"/><path class="cls-2" d="M261.5,106.2c-.14-.4-5.5-16.3-12-35.47a1.67,1.67,0,0,0-.32-1C239.34,40.5,227.07,4.15,226.85,3.48a1.72,1.72,0,0,0-.84-1,1.69,1.69,0,0,0-2.14.52.84.84,0,0,0-.15.26,1.34,1.34,0,0,0-.07.18L189.22,105.05H141.75V54.75h44.78a1.69,1.69,0,1,0,0-3.37H141.75V5.69h48.16a1.69,1.69,0,0,0,0-3.38H140.06A1.69,1.69,0,0,0,138.38,4V106.74a1.68,1.68,0,0,0,1.68,1.68h50.37a1.69,1.69,0,0,0,1.6-1.14l11.8-34.83h42.72l11.75,34.83a1.69,1.69,0,0,0,3.2-1.08ZM205,69.08,225.25,9.24c.83,2.51,2,6.12,3.81,11.35l16.35,48.49Z"/><path class="cls-2" d="M328.34,106.76,290.19,47.43,324.26,5.06a1.69,1.69,0,0,0-2.64-2.12L270.76,66.22V4a1.69,1.69,0,1,0-3.37,0V106.74a1.69,1.69,0,0,0,3.37,0V71.6L288,50.21l37.54,58.38a1.69,1.69,0,0,0,1.42.77,1.61,1.61,0,0,0,.91-.27A1.68,1.68,0,0,0,328.34,106.76Z"/></g></g></svg>