<svg xmlns="http://www.w3.org/2000/svg" xmlns:xlink="http://www.w3.org/1999/xlink" version="1.1" x="0px" y="0px" viewBox="0 0 64 80" enable-background="new 0 0 64 64" xml:space="preserve"><g><path fill="#000000" d="M57.1,55.6L41.9,40.5c7.1-7.9,6.9-20.1-0.7-27.7C33.4,5,20.7,5,12.8,12.8C5,20.7,5,33.4,12.8,41.3   c3.9,3.9,9.1,5.9,14.2,5.9c4.8,0,9.7-1.8,13.5-5.2l15.1,15.1L57.1,55.6z M14.2,39.9c-7.1-7.1-7.1-18.5,0-25.6   c3.5-3.5,8.2-5.3,12.8-5.3s9.3,1.8,12.8,5.3c7.1,7.1,7.1,18.5,0,25.6C32.8,46.9,21.3,46.9,14.2,39.9z"/></g><text x="0" y="79" fill="#000000" font-size="5px" font-weight="bold" font-family="'Helvetica Neue', Helvetica, Arial-Unicode, Arial, Sans-serif">Created by Berkah Icon</text><text x="0" y="84" fill="#000000" font-size="5px" font-weight="bold" font-family="'Helvetica Neue', Helvetica, Arial-Unicode, Arial, Sans-serif">from the Noun Project</text></svg>