<svg id="Layer_1" data-name="Layer 1" xmlns="http://www.w3.org/2000/svg" viewBox="0 0 44 44"><defs><style>.cls-1{fill:#0f0f11;stroke:#0f0f11;stroke-miterlimit:10;stroke-width:0.22px;}</style></defs><path class="cls-1" d="M27,24.65H17a6.44,6.44,0,0,0-6.46,6.42V33.5h23V31.11a6.45,6.45,0,0,0-6.41-6.46Zm5.58,8H11.38V31.11a5.56,5.56,0,0,1,5.53-5.57H27.09a5.55,5.55,0,0,1,5.53,5.55v1.53Z"/><path class="cls-1" d="M22,22.88a6.19,6.19,0,1,0-6.19-6.19A6.19,6.19,0,0,0,22,22.88Zm0-11.5a5.31,5.31,0,1,1-5.31,5.31A5.31,5.31,0,0,1,22,11.38Z"/></svg>