<svg width="26" height="15" viewBox="0 0 26 15" fill="none" xmlns="http://www.w3.org/2000/svg">
<path d="M12.9284 15C20.0551 15 24.6033 9.54869 25.8567 7.87411L26 7.66033L25.8567 7.44656C24.6391 5.70071 20.0909 0 13.0358 0C13 0 12.9642 0 12.9284 0C5.76584 0.0712589 1.32507 5.70071 0.143251 7.44656L0 7.66033L0.143251 7.87411C1.71901 10.0119 6.15978 15 12.9284 15ZM12.9284 0.748219C19.4463 0.67696 23.7438 5.77197 25.1047 7.66033C23.7438 9.47743 19.4463 14.2874 12.9642 14.2874C12.9642 14.2874 12.9642 14.2874 12.9284 14.2874C6.69697 14.2874 2.5427 9.7981 0.895317 7.66033C1.9697 6.12827 6.30303 0.783848 12.9284 0.748219Z" fill="#6E6E6E"/>
<path d="M12.9637 11.8289C15.3632 11.8289 17.297 9.90488 17.297 7.51771C17.297 5.13053 15.3632 3.20654 12.9637 3.20654C10.5643 3.20654 8.63037 5.13053 8.63037 7.51771C8.63037 9.90488 10.6001 11.8289 12.9637 11.8289ZM12.9637 3.91913C14.9692 3.91913 16.5808 5.52246 16.5808 7.51771C16.5808 9.51296 14.9692 11.1163 12.9637 11.1163C10.9582 11.1163 9.34662 9.51296 9.34662 7.51771C9.34662 5.52246 10.994 3.91913 12.9637 3.91913Z" fill="#6E6E6E"/>
</svg>
