<svg width="40" height="30" viewBox="0 0 40 30" fill="none" xmlns="http://www.w3.org/2000/svg">
<path d="M36.2999 29.1H3.69991C2.29991 29.1 1.19991 28.3 0.799909 27C0.399909 25.7 0.899909 24.4 1.99991 23.6L18.8999 12.6V10.1C18.8999 9.49998 19.2999 9.09998 19.8999 9.09998C20.4999 9.09998 20.8999 9.49998 20.8999 10.1V12.6L37.7999 23.6C38.8999 24.3 39.3999 25.7 38.9999 27C38.7999 28.3 37.5999 29.1 36.2999 29.1ZM19.9999 14.3L3.19991 25.3C2.59991 25.7 2.69991 26.3 2.79991 26.4C2.89991 26.5 3.09991 27.1 3.79991 27.1H36.2999C36.9999 27.1 37.1999 26.6 37.2999 26.4C37.3999 26.2 37.4999 25.7 36.8999 25.3L19.9999 14.3Z" fill="black"/>
<path d="M20 10.9C19.4 10.9 19 10.5 19 9.90002C19 9.30002 19.4 8.90002 20 8.90002C21.7 8.90002 23 7.60002 23 5.90002C23 4.20002 21.7 2.90002 20 2.90002C19.1 2.90002 18.3 3.30002 17.7 3.90002C17.2 4.40002 17 5.20002 17 5.90002C17 6.50002 16.6 6.90002 16 6.90002C15.4 6.90002 15 6.50002 15 5.90002C15 4.70002 15.4 3.50003 16.2 2.60003C17.1 1.50003 18.5 0.900024 20 0.900024C22.8 0.900024 25 3.10002 25 5.90002C25 8.70002 22.8 10.9 20 10.9Z" fill="black"/>
</svg>
