<?xml version="1.0" encoding="utf-8"?>
<!-- Generator: Adobe Illustrator 24.3.0, SVG Export Plug-In . SVG Version: 6.00 Build 0)  -->
<svg version="1.1" id="Layer_1" xmlns="http://www.w3.org/2000/svg" xmlns:xlink="http://www.w3.org/1999/xlink" x="0px" y="0px"
	 viewBox="0 0 44 44" style="enable-background:new 0 0 44 44;" xml:space="preserve">
<style type="text/css">
	.st0{fill:#0F0F11;stroke:#0F0F11;stroke-width:0.2288;stroke-miterlimit:10;}
	.st1{fill:#0F0F11;stroke:#0F0F11;stroke-width:0.2212;stroke-miterlimit:10;}
	.st2{fill:#0F0F11;stroke:#0F0F11;stroke-width:0.22;stroke-miterlimit:10;}
</style>
<path class="st0" d="M33.5,32.8l-7-6.9c3.5-3.7,3.2-9.5-0.5-13c-3.7-3.4-9.3-3.2-12.8,0.3c-3.6,3.6-3.6,9.4,0,13
	c1.7,1.7,4.1,2.7,6.5,2.7c2.3,0,4.5-0.9,6.2-2.4l6.9,6.9L33.5,32.8z M13.8,25.6c-3.2-3.2-3.2-8.5,0-11.7s8.5-3.2,11.7,0
	s3.2,8.5,0,11.7c0,0,0,0,0,0C22.4,28.9,17.1,28.9,13.8,25.6C13.9,25.7,13.9,25.7,13.8,25.6z"/>
<g>
	<path class="st1" d="M73.1,24.7H63c-3.6,0-6.4,2.9-6.5,6.4c0,0,0,0,0,0v2.4h23v-2.4C79.6,27.6,76.7,24.7,73.1,24.7
		C73.1,24.7,73.1,24.7,73.1,24.7z M78.7,32.6H57.4v-1.5c0-3.1,2.5-5.6,5.5-5.6c0,0,0,0,0,0h10.1c3.1,0,5.5,2.5,5.5,5.6c0,0,0,0,0,0
		V32.6z"/>
	<path class="st1" d="M68,22.9c3.4,0,6.2-2.8,6.2-6.2s-2.8-6.2-6.2-6.2c-3.4,0-6.2,2.8-6.2,6.2S64.6,22.9,68,22.9z M68,11.4
		c2.9,0,5.3,2.4,5.3,5.3S71,22,68,22c-2.9,0-5.3-2.4-5.3-5.3S65.1,11.4,68,11.4z"/>
</g>
<path class="st2" d="M117.5,15.4V14c0-2-1.6-3.5-3.6-3.5c-2,0-3.6,1.6-3.6,3.5c0,0,0,0,0,0v1.3h-4.4v18.1h16V15.4H117.5z M111.2,14
	c0-1.5,1.2-2.7,2.7-2.7c1.5,0,2.7,1.2,2.7,2.7v1.3h-5.3V14z M121,32.6h-14.2V16.3h3.6v2.2h0.9v-2.2h5.4v2.2h0.9v-2.2h3.6L121,32.6z"
	/>
</svg>
