<svg xmlns="http://www.w3.org/2000/svg" viewBox="0 0 376.26 291.88"><defs><style>.cls-1{fill:#fff;}</style></defs><g id="Layer_2" data-name="Layer 2"><g id="Layer_1-2" data-name="Layer 1"><path class="cls-1" d="M36.35,125.45C9.52,125.45,0,106.75,0,90.73V84.14a1.93,1.93,0,1,1,3.86,0v6.59c0,14.92,8.54,30.86,32.49,30.86,25.14,0,34.06-16.62,34.06-30.86v-.82c0-15.72-17.12-20.9-30.88-25.06l-2-.61c-16.9-5.14-34.38-10.45-34.38-33C3.16,20.45,10.32,0,37.4,0,62.91,0,72,16.23,72,31.42v2.47a1.94,1.94,0,1,1-3.87,0V31.42c0-13.32-8.07-27.56-30.73-27.56C13.37,3.86,7,21.78,7,31.26,7,49.6,19,54.56,38.67,60.54l2,.61c14.19,4.29,33.63,10.17,33.63,28.76v.82C74.28,108,62.55,125.45,36.35,125.45Z"/><path class="cls-1" d="M84.59,123.47a1.92,1.92,0,0,1-1.93-1.93V3.91A1.93,1.93,0,0,1,84.59,2H119c19.12,0,32,13.36,32,33.24,0,25.26-19.49,34.22-36.17,34.22H86.52v52.11A1.92,1.92,0,0,1,84.59,123.47Zm1.93-57.9H114.8c15.62,0,32.31-8,32.31-30.36,0-17.84-11-29.37-28.1-29.37H86.52Z"/><path class="cls-1" d="M299.42,120.92c-.16-.46-6.3-18.66-13.7-40.61a1.93,1.93,0,0,0-.37-1.09L259.74,3.31a1.93,1.93,0,0,0-3.4-.53,1.33,1.33,0,0,0-.18.3,1.8,1.8,0,0,0-.08.21L216.66,119.61H162.31V62h51.27a1.93,1.93,0,0,0,0-3.86H162.31V5.84h55.13a1.94,1.94,0,1,0,0-3.87H160.38a1.94,1.94,0,0,0-1.94,1.94V121.54a1.93,1.93,0,0,0,1.94,1.93h57.67a1.93,1.93,0,0,0,1.83-1.31l13.51-39.87h48.92l13.45,39.87a1.92,1.92,0,0,0,1.83,1.31,2,2,0,0,0,.62-.1A1.93,1.93,0,0,0,299.42,120.92ZM234.7,78.42,257.91,9.9c.95,2.88,2.34,7,4.37,13L281,78.42Z"/><path class="cls-1" d="M376,121.57,332.27,53.64l39-48.52a1.93,1.93,0,1,0-3-2.42L310,75.14V3.91a1.94,1.94,0,1,0-3.87,0V121.54a1.94,1.94,0,0,0,3.87,0V81.31l19.69-24.49,43,66.84a1.94,1.94,0,0,0,1.63.89,1.89,1.89,0,0,0,1-.31A1.93,1.93,0,0,0,376,121.57Z"/><path class="cls-1" d="M70.31,291.88c-48.57,0-70.31-40-70.31-79.67s21.74-79.66,70.31-79.66,70.32,40,70.32,79.66S118.88,291.88,70.31,291.88Zm0-155.48c-45.9,0-66.45,38.08-66.45,75.81S24.41,288,70.31,288s66.46-38.07,66.46-75.81S116.22,136.4,70.31,136.4Z"/><path class="cls-1" d="M374.33,136.08H257.39a1.92,1.92,0,0,0-1.93,1.93v93.12c0,37.22-17.89,56.89-51.73,56.89S152,268.35,152,231.13V136.68a1.93,1.93,0,0,0-3.85,0v94.45c0,39.74,19.21,60.75,55.57,60.75s55.59-21,55.59-60.75V139.94h55.09V286.42a1.93,1.93,0,0,0,3.86,0V139.94h56.06a1.93,1.93,0,1,0,0-3.86Z"/></g></g></svg>