<svg xmlns="http://www.w3.org/2000/svg" xmlns:xlink="http://www.w3.org/1999/xlink" version="1.1" x="0px" y="0px" viewBox="0 0 64 80" enable-background="new 0 0 64 64" xml:space="preserve"><g><g><path fill="#000000" d="M43.4,38H20.6C12.5,38,6,44.5,6,52.6V58h52v-5.4C58,44.5,51.5,38,43.4,38z M56,56H8v-3.4    C8,45.6,13.6,40,20.6,40h22.9C50.4,40,56,45.6,56,52.6V56z"/><path fill="#000000" d="M32,34c7.7,0,14-6.3,14-14S39.7,6,32,6s-14,6.3-14,14S24.3,34,32,34z M32,8c6.6,0,12,5.4,12,12    s-5.4,12-12,12s-12-5.4-12-12S25.4,8,32,8z"/></g></g><text x="0" y="79" fill="#000000" font-size="5px" font-weight="bold" font-family="'Helvetica Neue', Helvetica, Arial-Unicode, Arial, Sans-serif">Created by Berkah Icon</text><text x="0" y="84" fill="#000000" font-size="5px" font-weight="bold" font-family="'Helvetica Neue', Helvetica, Arial-Unicode, Arial, Sans-serif">from the Noun Project</text></svg>